<svg width="48" height="48" viewBox="0 0 48 48" fill="none" xmlns="http://www.w3.org/2000/svg">
  <defs>
    <linearGradient id="lg1" x1="0" y1="0" x2="48" y2="48" gradientUnits="userSpaceOnUse">
      <stop offset="0%" stop-color="#00C8FF"/>
      <stop offset="100%" stop-color="#00E5A0"/>
    </linearGradient>
  </defs>
  <circle cx="24" cy="24" r="21" stroke="url(#lg1)" stroke-width="2.5" fill="none"/>
  <circle cx="24" cy="24" r="16.5" stroke="url(#lg1)" stroke-width="0.8" fill="none" opacity="0.4"/>
  <line x1="13" y1="33" x2="35" y2="33" stroke="url(#lg1)" stroke-width="1.2" opacity="0.6"/>
  <rect x="19" y="18" width="10" height="15" rx="0.5" fill="url(#lg1)" opacity="0.9"/>
  <rect x="20.5" y="19.5" width="2.5" height="2" rx="0.3" fill="#040A18" opacity="0.7"/>
  <rect x="24" y="19.5" width="2.5" height="2" rx="0.3" fill="#040A18" opacity="0.7"/>
  <rect x="20.5" y="22.8" width="2.5" height="2" rx="0.3" fill="#040A18" opacity="0.7"/>
  <rect x="24" y="22.8" width="2.5" height="2" rx="0.3" fill="#040A18" opacity="0.7"/>
  <rect x="20.5" y="26.1" width="2.5" height="2" rx="0.3" fill="#040A18" opacity="0.7"/>
  <rect x="24" y="26.1" width="2.5" height="2" rx="0.3" fill="#040A18" opacity="0.7"/>
  <rect x="13" y="25" width="6" height="8" rx="0.5" fill="url(#lg1)" opacity="0.5"/>
  <rect x="29" y="27" width="6" height="6" rx="0.5" fill="url(#lg1)" opacity="0.5"/>
  <circle cx="37" cy="11" r="2.5" fill="white" opacity="0.25"/>
  <circle cx="37" cy="11" r="1.2" fill="white" opacity="0.5"/>
</svg>